<?xml version="1.0" encoding="UTF-8" standalone="no"?>
<!-- Created with Inkscape (http://www.inkscape.org/) -->

<svg
   xmlns:dc="http://purl.org/dc/elements/1.1/"
   xmlns:cc="http://creativecommons.org/ns#"
   xmlns:rdf="http://www.w3.org/1999/02/22-rdf-syntax-ns#"
   xmlns:svg="http://www.w3.org/2000/svg"
   xmlns="http://www.w3.org/2000/svg"
   xmlns:xlink="http://www.w3.org/1999/xlink"
   xmlns:sodipodi="http://sodipodi.sourceforge.net/DTD/sodipodi-0.dtd"
   xmlns:inkscape="http://www.inkscape.org/namespaces/inkscape"
   width="48"
   height="48"
   id="svg7366"
   sodipodi:version="0.32"
   inkscape:version="0.48.3.1 r9886"
   sodipodi:docname="camera-sj2.svg"
   inkscape:export-filename="/media/hdb2/home/vinicius/Backup/Documentos/Vinicius/tango-icon-theme-code/webcam/scalable/webcam.png"
   inkscape:export-xdpi="90"
   inkscape:export-ydpi="90"
   version="1.0"
   inkscape:output_extension="org.inkscape.output.svg.inkscape">
  <defs
     id="defs7368">
    <linearGradient
       inkscape:collect="always"
       id="linearGradient3841">
      <stop
         style="stop-color:#3a61a1;stop-opacity:1;"
         offset="0"
         id="stop3843" />
      <stop
         style="stop-color:#3a61a1;stop-opacity:0;"
         offset="1"
         id="stop3845" />
    </linearGradient>
    <linearGradient
       inkscape:collect="always"
       id="linearGradient6147">
      <stop
         style="stop-color:#ffffff;stop-opacity:1;"
         offset="0"
         id="stop6149" />
      <stop
         style="stop-color:#ffffff;stop-opacity:0;"
         offset="1"
         id="stop6151" />
    </linearGradient>
    <linearGradient
       id="linearGradient6035">
      <stop
         style="stop-color:#8e908b;stop-opacity:1;"
         offset="0"
         id="stop6037" />
      <stop
         style="stop-color:#40423f;stop-opacity:1;"
         offset="1"
         id="stop6039" />
    </linearGradient>
    <linearGradient
       id="linearGradient5983">
      <stop
         style="stop-color:#3b3c3a;stop-opacity:1;"
         offset="0"
         id="stop5985" />
      <stop
         id="stop5991"
         offset="0.5"
         style="stop-color:#989a96;stop-opacity:1;" />
      <stop
         style="stop-color:#31322f;stop-opacity:1;"
         offset="1"
         id="stop5987" />
    </linearGradient>
    <linearGradient
       inkscape:collect="always"
       id="linearGradient5975">
      <stop
         style="stop-color:#ffffff;stop-opacity:1;"
         offset="0"
         id="stop5977" />
      <stop
         style="stop-color:#ffffff;stop-opacity:0;"
         offset="1"
         id="stop5979" />
    </linearGradient>
    <linearGradient
       inkscape:collect="always"
       id="linearGradient11646">
      <stop
         style="stop-color:#ffffff;stop-opacity:1;"
         offset="0"
         id="stop11648" />
      <stop
         style="stop-color:#ffffff;stop-opacity:0;"
         offset="1"
         id="stop11650" />
    </linearGradient>
    <linearGradient
       inkscape:collect="always"
       id="linearGradient6596">
      <stop
         style="stop-color:#a6c3e1;stop-opacity:1;"
         offset="0"
         id="stop6598" />
      <stop
         style="stop-color:#a6c3e1;stop-opacity:0;"
         offset="1"
         id="stop6600" />
    </linearGradient>
    <linearGradient
       inkscape:collect="always"
       id="linearGradient3087">
      <stop
         style="stop-color:#ffffff;stop-opacity:1;"
         offset="0"
         id="stop3089" />
      <stop
         style="stop-color:#ffffff;stop-opacity:0;"
         offset="1"
         id="stop3091" />
    </linearGradient>
    <linearGradient
       inkscape:collect="always"
       id="linearGradient2206">
      <stop
         style="stop-color:#ffffff;stop-opacity:1;"
         offset="0"
         id="stop2208" />
      <stop
         style="stop-color:#ffffff;stop-opacity:0;"
         offset="1"
         id="stop2210" />
    </linearGradient>
    <linearGradient
       inkscape:collect="always"
       id="linearGradient5721">
      <stop
         style="stop-color:#000000;stop-opacity:1;"
         offset="0"
         id="stop5723" />
      <stop
         style="stop-color:#000000;stop-opacity:0;"
         offset="1"
         id="stop5725" />
    </linearGradient>
    <linearGradient
       inkscape:collect="always"
       id="linearGradient7410">
      <stop
         style="stop-color:#555753;stop-opacity:1;"
         offset="0"
         id="stop7412" />
      <stop
         style="stop-color:#555753;stop-opacity:0;"
         offset="1"
         id="stop7414" />
    </linearGradient>
    <linearGradient
       id="linearGradient7386">
      <stop
         style="stop-color:#ffffff;stop-opacity:1;"
         offset="0"
         id="stop7388" />
      <stop
         id="stop6033"
         offset="0.34523809"
         style="stop-color:#ffffff;stop-opacity:1;" />
      <stop
         id="stop6031"
         offset="0.79733562"
         style="stop-color:#c1c1c1;stop-opacity:1;" />
      <stop
         style="stop-color:#e3e3e3;stop-opacity:1;"
         offset="1"
         id="stop7390" />
    </linearGradient>
    <radialGradient
       inkscape:collect="always"
       xlink:href="#linearGradient5721"
       id="radialGradient5727"
       cx="15.337832"
       cy="27.467861"
       fx="15.337832"
       fy="27.467861"
       r="11.631747"
       gradientTransform="matrix(1,0,0,0.366603,0,17.39807)"
       gradientUnits="userSpaceOnUse" />
    <linearGradient
       inkscape:collect="always"
       xlink:href="#linearGradient3087"
       id="linearGradient3093"
       x1="53.135429"
       y1="20.345228"
       x2="53.135429"
       y2="1.6754831"
       gradientUnits="userSpaceOnUse" />
    <radialGradient
       inkscape:collect="always"
       xlink:href="#linearGradient11646"
       id="radialGradient11652"
       cx="14.979873"
       cy="22.900909"
       fx="14.979873"
       fy="22.900909"
       r="1.75"
       gradientTransform="matrix(1.009505,0,0,1.045558,-0.372253,-1.256737)"
       gradientUnits="userSpaceOnUse" />
    <linearGradient
       id="linearGradient5841"
       inkscape:collect="always">
      <stop
         id="stop5843"
         offset="0"
         style="stop-color:#ffffff;stop-opacity:1;" />
      <stop
         id="stop5845"
         offset="1"
         style="stop-color:#ffffff;stop-opacity:0;" />
    </linearGradient>
    <linearGradient
       id="linearGradient8895">
      <stop
         style="stop-color:#204a87;stop-opacity:0;"
         offset="0"
         id="stop8899" />
      <stop
         id="stop8905"
         offset="0.5"
         style="stop-color:#204a87;stop-opacity:0;" />
      <stop
         style="stop-color:#204a87;stop-opacity:1;"
         offset="1"
         id="stop8897" />
    </linearGradient>
    <linearGradient
       id="linearGradient8909"
       inkscape:collect="always">
      <stop
         id="stop8911"
         offset="0"
         style="stop-color:#edd400;stop-opacity:1;" />
      <stop
         id="stop8913"
         offset="1"
         style="stop-color:#edd400;stop-opacity:0;" />
    </linearGradient>
    <linearGradient
       inkscape:collect="always"
       xlink:href="#linearGradient5841"
       id="linearGradient5960"
       gradientUnits="userSpaceOnUse"
       x1="25.84375"
       y1="27.124889"
       x2="25.84375"
       y2="45" />
    <radialGradient
       inkscape:collect="always"
       xlink:href="#linearGradient8909"
       id="radialGradient5971"
       gradientUnits="userSpaceOnUse"
       gradientTransform="matrix(0.377828,-0.02299204,0.02041151,0.3354218,20.433757,19.367464)"
       cx="33.242355"
       cy="27.869101"
       fx="33.242355"
       fy="27.869101"
       r="4.125" />
    <radialGradient
       inkscape:collect="always"
       xlink:href="#linearGradient8895"
       id="radialGradient5973"
       gradientUnits="userSpaceOnUse"
       gradientTransform="matrix(0.953696,0,0,0.953696,1.4961981,1.4354241)"
       cx="32.3125"
       cy="31"
       fx="32.3125"
       fy="31"
       r="2.6875" />
    <linearGradient
       inkscape:collect="always"
       xlink:href="#linearGradient5975"
       id="linearGradient5981"
       x1="20.875"
       y1="18.5625"
       x2="20.875"
       y2="20.199675"
       gradientUnits="userSpaceOnUse" />
    <filter
       inkscape:collect="always"
       x="-0.060583437"
       width="1.1211669"
       y="-0.16525639"
       height="1.3305128"
       id="filter6025">
      <feGaussianBlur
         inkscape:collect="always"
         stdDeviation="0.70469123"
         id="feGaussianBlur6027" />
    </filter>
    <filter
       inkscape:collect="always"
       x="-0.388057"
       width="1.776114"
       y="-0.36523011"
       height="1.7304602"
       id="filter6137">
      <feGaussianBlur
         inkscape:collect="always"
         stdDeviation="0.39207371"
         id="feGaussianBlur6139" />
    </filter>
    <linearGradient
       inkscape:collect="always"
       xlink:href="#linearGradient6147"
       id="linearGradient6153"
       x1="53.135429"
       y1="20.189396"
       x2="53.135429"
       y2="13.554156"
       gradientUnits="userSpaceOnUse" />
    <radialGradient
       inkscape:collect="always"
       xlink:href="#linearGradient3841"
       id="radialGradient3847"
       cx="15.350944"
       cy="36.981371"
       fx="15.350944"
       fy="36.981371"
       r="10.668945"
       gradientTransform="matrix(1,0,0,0.55699857,0,16.3828)"
       gradientUnits="userSpaceOnUse" />
    <linearGradient
       inkscape:collect="always"
       xlink:href="#linearGradient6035"
       id="linearGradient3864"
       gradientUnits="userSpaceOnUse"
       gradientTransform="matrix(1.4742492,0,0,1.2419052,13.604386,-4.5112684)"
       x1="-22.5"
       y1="15.8125"
       x2="-22.625"
       y2="34.8125" />
    <linearGradient
       inkscape:collect="always"
       xlink:href="#linearGradient6596"
       id="linearGradient3388"
       gradientUnits="userSpaceOnUse"
       x1="23.862038"
       y1="3.7243195"
       x2="23.862038"
       y2="5.7632418" />
    <radialGradient
       inkscape:collect="always"
       xlink:href="#linearGradient7386"
       id="radialGradient3398"
       gradientUnits="userSpaceOnUse"
       gradientTransform="matrix(0,1.2308748,-1.3565209,0,41.774476,-16.057996)"
       cx="23.987465"
       cy="13.112228"
       fx="23.987465"
       fy="13.112228"
       r="17.011631" />
    <radialGradient
       inkscape:collect="always"
       xlink:href="#linearGradient6035"
       id="radialGradient3400"
       gradientUnits="userSpaceOnUse"
       gradientTransform="matrix(1.9144537,0,0,1.8219649,-21.935426,-2.0188168)"
       cx="23.987465"
       cy="3.4559402"
       fx="23.987465"
       fy="3.4559402"
       r="17.011631" />
    <linearGradient
       inkscape:collect="always"
       xlink:href="#linearGradient2206"
       id="linearGradient3403"
       gradientUnits="userSpaceOnUse"
       x1="33.57629"
       y1="42.274773"
       x2="32.471783"
       y2="36.587273" />
    <linearGradient
       inkscape:collect="always"
       xlink:href="#linearGradient5983"
       id="linearGradient3407"
       gradientUnits="userSpaceOnUse"
       x1="13.027615"
       y1="36.34014"
       x2="34.947331"
       y2="36.34014" />
    <linearGradient
       inkscape:collect="always"
       xlink:href="#linearGradient7410"
       id="linearGradient3410"
       gradientUnits="userSpaceOnUse"
       gradientTransform="matrix(1.494265,0,0,1.494265,2.320625,-0.139643)"
       x1="24.071547"
       y1="23.018641"
       x2="25.686659"
       y2="19.979298" />
    <linearGradient
       inkscape:collect="always"
       xlink:href="#linearGradient6035"
       id="linearGradient3413"
       gradientUnits="userSpaceOnUse"
       gradientTransform="matrix(0.99604454,0,0,0.80027037,38.576587,15.027154)"
       x1="-22.5"
       y1="15.8125"
       x2="-22.625"
       y2="34.8125" />
  </defs>
  <sodipodi:namedview
     id="base"
     pagecolor="#ffffff"
     bordercolor="#d1d1d1"
     borderopacity="1"
     inkscape:pageopacity="0.0"
     inkscape:pageshadow="2"
     inkscape:zoom="4.0000001"
     inkscape:cx="20.83125"
     inkscape:cy="26.554312"
     inkscape:current-layer="layer1"
     showgrid="false"
     inkscape:grid-bbox="true"
     inkscape:document-units="px"
     inkscape:window-width="690"
     inkscape:window-height="503"
     inkscape:window-x="417"
     inkscape:window-y="464"
     fill="#3465a4"
     borderlayer="true"
     inkscape:showpageshadow="false"
     inkscape:window-maximized="0" />
  <metadata
     id="metadata7371">
    <rdf:RDF>
      <cc:Work
         rdf:about="">
        <dc:format>image/svg+xml</dc:format>
        <dc:type
           rdf:resource="http://purl.org/dc/dcmitype/StillImage" />
        <cc:license
           rdf:resource="http://creativecommons.org/licenses/GPL/2.0/" />
        <dc:title></dc:title>
        <dc:creator>
          <cc:Agent>
            <dc:title>Josef Vybíral, Vinicius Depizzol</dc:title>
          </cc:Agent>
        </dc:creator>
        <dc:contributor>
          <cc:Agent>
            <dc:title>Jakub Steiner</dc:title>
          </cc:Agent>
        </dc:contributor>
        <dc:subject>
          <rdf:Bag>
            <rdf:li>webcam</rdf:li>
            <rdf:li>video</rdf:li>
            <rdf:li>conference</rdf:li>
            <rdf:li>camera</rdf:li>
            <rdf:li>camera web</rdf:li>
          </rdf:Bag>
        </dc:subject>
      </cc:Work>
      <cc:License
         rdf:about="http://creativecommons.org/licenses/GPL/2.0/">
        <cc:permits
           rdf:resource="http://web.resource.org/cc/Reproduction" />
        <cc:permits
           rdf:resource="http://web.resource.org/cc/Distribution" />
        <cc:requires
           rdf:resource="http://web.resource.org/cc/Notice" />
        <cc:permits
           rdf:resource="http://web.resource.org/cc/DerivativeWorks" />
        <cc:requires
           rdf:resource="http://web.resource.org/cc/ShareAlike" />
        <cc:requires
           rdf:resource="http://web.resource.org/cc/SourceCode" />
      </cc:License>
    </rdf:RDF>
  </metadata>
  <g
     id="layer1"
     inkscape:label="Layer 1"
     inkscape:groupmode="layer">
    <path
       sodipodi:type="inkscape:offset"
       inkscape:radius="-1.1642135"
       inkscape:original="M 77.6875 -59 C 75.557592 -58.999998 73.875 -57.324673 73.875 -55.25 L 73.875 -45.09375 L 73.875 -1.8125 L 73.875 -1.3125 C 73.874997 3.9232308 79.710742 8.125 86.96875 8.125 C 92.624681 8.1249999 97.408001 5.1701221 99.25 1.5625 L 159.5625 1.5625 C 161.6924 1.5625 163.40625 -0.14407243 163.40625 -2.21875 L 163.40625 -55.25 C 163.40624 -57.324673 161.6924 -59 159.5625 -59 L 77.6875 -59 z "
       xlink:href="#rect4783"
       style="opacity:0.37058824;color:#000000;fill:none;fill-opacity:1;fill-rule:evenodd;stroke:url(#linearGradient5960);stroke-width:0.44588342;stroke-linecap:butt;stroke-linejoin:miter;marker:none;marker-start:none;marker-mid:none;marker-end:none;stroke-miterlimit:10;stroke-dasharray:none;stroke-dashoffset:0;stroke-opacity:1;visibility:visible;display:inline;overflow:visible;enable-background:accumulate"
       id="path5837"
       inkscape:href="#rect4783"
       d="M 5.21875,10.65625 C 4.8873522,10.65625 4.65625,10.902796 4.65625,11.1875 L 4.65625,15.71875 L 4.65625,35.0625 L 4.65625,35.28125 C 4.65625,36.019485 5.0486842,36.715787 5.875,37.3125 C 6.7013158,37.909213 7.9471874,38.34375 9.34375,38.34375 C 11.463736,38.34375 13.245322,37.142088 13.8125,36.03125 C 14.013191,35.647273 14.410489,35.406486 14.84375,35.40625 L 41.78125,35.40625 C 42.112647,35.40625 42.34375,35.159706 42.34375,34.875 L 42.34375,11.1875 C 42.343749,10.902795 42.112644,10.65625 41.78125,10.65625 L 5.21875,10.65625 z "
       transform="matrix(2.2473829,0,0,2.2381039,65.994101,-80.275764)" />
    <path
       sodipodi:type="arc"
       style="opacity:0.72352941;color:#000000;fill:url(#radialGradient5727);fill-opacity:1;fill-rule:evenodd;stroke:none;stroke-width:0.99999994;marker:none;visibility:visible;display:inline;overflow:visible"
       id="path4750"
       sodipodi:cx="15.337832"
       sodipodi:cy="27.467861"
       sodipodi:rx="11.631747"
       sodipodi:ry="4.2642298"
       d="m 26.96958,27.467861 a 11.631747,4.2642298 0 1 1 -23.2634948,0 11.631747,4.2642298 0 1 1 23.2634948,0 z"
       transform="matrix(1.477341,0,0,1.2837468,1.328269,4.128357)" />
    <path
       inkscape:connector-curvature="0"
       style="fill:none;stroke:url(#linearGradient3410);stroke-width:0.99999982px;stroke-linecap:butt;stroke-linejoin:miter;stroke-opacity:1"
       d="m 26.228869,38.711256 c 0,0 5.977063,-1.494266 11.954123,-1.120699 5.977062,0.373566 4.286398,-1.747939 0.677532,-3.077855 -3.608867,-1.329917 1.870141,-3.217082 1.870141,-4.711348"
       id="path7408"
       sodipodi:nodetypes="cssc" />
    <path
       inkscape:connector-curvature="0"
       style="color:#000000;fill:url(#linearGradient3407);fill-opacity:1;fill-rule:evenodd;stroke:#2e3436;stroke-width:0.9999997;stroke-linecap:round;stroke-linejoin:miter;stroke-miterlimit:4;stroke-opacity:1;stroke-dashoffset:0;marker:none;visibility:visible;display:inline;overflow:visible"
       d="m 34.447331,38.819745 c 0,3.392449 -4.686015,3.666135 -10.459859,3.666135 -5.773839,0 -10.459857,-0.273686 -10.459857,-3.666135 0,-3.392447 4.686018,-8.625345 10.459857,-8.625345 5.773844,0 10.459859,5.232898 10.459859,8.625345 z"
       id="path7399"
       sodipodi:nodetypes="csssc" />
    <path
       transform="matrix(0.7782433,0,0,1.333079,11.697359,-4.6942085)"
       d="m 26.96958,27.467861 a 11.631747,4.2642298 0 1 1 -23.2634948,0 11.631747,4.2642298 0 1 1 23.2634948,0 z"
       sodipodi:ry="4.2642298"
       sodipodi:rx="11.631747"
       sodipodi:cy="27.467861"
       sodipodi:cx="15.337832"
       id="path5993"
       style="opacity:0.47647059;color:#000000;fill:#000000;fill-opacity:1;fill-rule:evenodd;stroke:none;stroke-width:0.99999994;marker:none;visibility:visible;display:inline;overflow:visible;filter:url(#filter6025)"
       sodipodi:type="arc" />
    <path
       inkscape:connector-curvature="0"
       sodipodi:nodetypes="csssc"
       id="path7402"
       d="m 33.471784,38.551985 c 0,2.688006 -4.246588,2.904862 -9.478998,2.904862 -5.232404,0 -9.478996,-0.216856 -9.478996,-2.904862 0,-2.688005 4.246592,-6.83429 9.478996,-6.83429 5.23241,0 9.478998,4.146285 9.478998,6.83429 z"
       style="color:#000000;fill:none;stroke:url(#linearGradient3403);stroke-width:0.99999994;stroke-linecap:round;stroke-linejoin:miter;stroke-miterlimit:4;stroke-opacity:0.54054051;stroke-dashoffset:0;marker:none;visibility:visible;display:inline;overflow:visible" />
    <path
       inkscape:connector-curvature="0"
       style="color:#000000;fill:url(#radialGradient3398);fill-opacity:1;fill-rule:evenodd;stroke:url(#radialGradient3400);stroke-width:0.99999982;stroke-linecap:round;stroke-linejoin:miter;stroke-miterlimit:4;stroke-opacity:1;stroke-dashoffset:0;marker:none;visibility:visible;display:inline;overflow:visible"
       d="m 40.499096,20.467574 c 0,8.66076 -7.397211,15.689783 -16.511633,15.689783 -9.114419,0 -16.511629,-7.029023 -16.511629,-15.689783 0,-8.660765 7.39721,-15.689789 16.511629,-15.689789 9.114422,0 16.511633,7.029024 16.511633,15.689789 z"
       id="path7384" />
    <path
       transform="matrix(0.866297,0,0,0.866006,-22.02994,11.46586)"
       d="m 61.797844,11.013739 a 8.6624146,8.6624146 0 1 1 -17.324829,0 8.6624146,8.6624146 0 1 1 17.324829,0 z"
       sodipodi:ry="8.6624146"
       sodipodi:rx="8.6624146"
       sodipodi:cy="11.013739"
       sodipodi:cx="53.135429"
       id="path7394"
       style="color:#000000;fill:#1a1d1f;fill-opacity:1;fill-rule:evenodd;stroke:#080a0a;stroke-width:1.15453279;stroke-linecap:round;stroke-linejoin:miter;stroke-miterlimit:4;stroke-opacity:1;stroke-dasharray:none;stroke-dashoffset:0;marker:none;visibility:visible;display:inline;overflow:visible"
       sodipodi:type="arc" />
    <path
       sodipodi:type="arc"
       style="color:#000000;fill:#4e9a06;fill-opacity:1;fill-rule:evenodd;stroke:none;stroke-width:1;marker:none;visibility:visible;display:inline;overflow:visible"
       id="path7418"
       sodipodi:cx="9.0300102"
       sodipodi:cy="8.2567558"
       sodipodi:rx="1.0103508"
       sodipodi:ry="1.0734978"
       d="m 10.040361,8.2567558 a 1.0103508,1.0734978 0 1 1 -2.0207016,0 1.0103508,1.0734978 0 1 1 2.0207016,0 z"
       transform="matrix(2.0356945,0,0,1.915947,-2.6133304,-2.8232634)" />
    <path
       inkscape:connector-curvature="0"
       id="path7404"
       d="m 39.481947,20.467564 c 0,8.121156 -6.937982,14.712238 -15.486568,14.712238 -8.548584,0 -15.4865675,-6.591082 -15.4865675,-14.712238 0,-8.121158 6.9379835,-14.7122407 15.4865675,-14.7122407 8.548586,0 15.486568,6.5910827 15.486568,14.7122407 z"
       style="color:#000000;fill:none;stroke:#ffffff;stroke-width:0.99999946;stroke-linecap:round;stroke-linejoin:miter;stroke-miterlimit:4;stroke-opacity:0.54054051;stroke-dasharray:none;stroke-dashoffset:0;marker:none;visibility:visible;display:inline;overflow:visible" />
    <path
       sodipodi:type="arc"
       style="color:#000000;fill:none;stroke:url(#linearGradient3093);stroke-width:1.33855808;stroke-linecap:round;stroke-linejoin:miter;stroke-miterlimit:4;stroke-opacity:0.37387384;stroke-dasharray:none;stroke-dashoffset:0;marker:none;visibility:visible;display:inline;overflow:visible"
       id="path7423"
       sodipodi:cx="53.135429"
       sodipodi:cy="11.013739"
       sodipodi:rx="8.6624146"
       sodipodi:ry="8.6624146"
       d="m 61.797844,11.013739 a 8.6624146,8.6624146 0 1 1 -17.324829,0 8.6624146,8.6624146 0 1 1 17.324829,0 z"
       transform="matrix(0.746845,0,0,0.7473,-15.67411,12.78367)" />
    <path
       transform="matrix(1.337693,-1.306334,-0.593221,-0.652343,25.02462,46.6156)"
       d="m 10.040361,8.2567558 a 1.0103508,1.0734978 0 1 1 -2.0207016,0 1.0103508,1.0734978 0 1 1 2.0207016,0 z"
       sodipodi:ry="1.0734978"
       sodipodi:rx="1.0103508"
       sodipodi:cy="8.2567558"
       sodipodi:cx="9.0300102"
       id="path4755"
       style="color:#000000;fill:#555753;fill-opacity:1;fill-rule:evenodd;stroke:none;stroke-width:1;marker:none;visibility:visible;display:inline;overflow:visible"
       sodipodi:type="arc" />
    <path
       inkscape:connector-curvature="0"
       style="color:#000000;fill:#729fcf;fill-opacity:1;fill-rule:evenodd;stroke:#3465a4;stroke-width:0.99999994;stroke-linecap:round;stroke-linejoin:miter;stroke-miterlimit:4;stroke-opacity:1;stroke-dashoffset:0;marker:none;visibility:visible;display:inline;overflow:visible"
       d="m 28.470269,5.2767411 c 0,1.100258 -2.008294,0.9966105 -4.482797,0.9966105 -2.474506,0 -4.482799,0.1036475 -4.482799,-0.9966105 0,-1.1002582 2.008293,-1.9932213 4.482799,-1.9932213 2.474503,0 4.482797,0.8929631 4.482797,1.9932213 z"
       id="path7420"
       sodipodi:nodetypes="csssc" />
    <path
       inkscape:connector-curvature="0"
       style="color:#000000;fill:#64c607;fill-opacity:1;fill-rule:evenodd;stroke:none;stroke-width:1;marker:none;visibility:visible;display:inline;overflow:visible"
       d="m 15.59375,11.5 c -0.373788,0.04756 -0.733845,0.260098 -0.96875,0.53125 -0.213222,0.25833 -0.34375,0.607885 -0.34375,0.96875 0,0.12888 5.24e-4,0.255669 0.03125,0.375 1.084906,-0.114444 1.85815,-0.494993 2.625,-1.28125 0.0056,-0.0057 -0.0056,-0.02549 0,-0.03125 C 16.663847,11.714338 16.258108,11.5 15.78125,11.5 c -0.06444,0 -0.125202,-0.0079 -0.1875,0 z"
       id="path3972" />
    <path
       inkscape:connector-curvature="0"
       style="fill:none;stroke:url(#linearGradient3388);stroke-width:1px;stroke-linecap:round;stroke-linejoin:miter;stroke-opacity:1"
       d="m 20.572388,5.1546796 c 1.57627,-1.0325371 4.774855,-1.2858695 6.891651,0"
       id="path4848"
       sodipodi:nodetypes="cc" />
    <path
       sodipodi:type="arc"
       style="opacity:0.38235294;color:#000000;fill:url(#radialGradient11652);fill-opacity:1;fill-rule:nonzero;stroke:none;stroke-width:1;marker:none;visibility:visible;display:inline;overflow:visible;font-family:Bitstream Vera Sans"
       id="path2599"
       sodipodi:cx="14.75"
       sodipodi:cy="22.6875"
       sodipodi:rx="1.75"
       sodipodi:ry="1.8125"
       d="m 16.5,22.6875 a 1.75,1.8125 0 1 1 -3.5,0 1.75,1.8125 0 1 1 3.5,0 z"
       transform="matrix(2.229764,0,0,2.229764,-8.371313,-27.5036)" />
    <path
       sodipodi:type="arc"
       style="opacity:0.48235294;color:#000000;fill:url(#radialGradient5973);fill-opacity:1;fill-rule:evenodd;stroke:none;stroke-width:0.30000001;marker:none;visibility:visible;display:inline;overflow:visible;enable-background:accumulate"
       id="path8893"
       sodipodi:cx="32.3125"
       sodipodi:cy="31"
       sodipodi:rx="2.6875"
       sodipodi:ry="2.6875"
       d="M 35,31 A 2.6875,2.6875 0 1 1 29.625,31 2.6875,2.6875 0 1 1 35,31 z"
       transform="matrix(2.2381039,0,0,2.2381039,-48.303828,-48.396125)" />
    <path
       sodipodi:type="arc"
       style="color:#000000;fill:none;stroke:url(#radialGradient5971);stroke-width:0.47503382;stroke-linecap:butt;stroke-linejoin:miter;stroke-miterlimit:10;stroke-opacity:1;stroke-dasharray:none;stroke-dashoffset:0;marker:none;visibility:visible;display:inline;overflow:visible;enable-background:accumulate"
       id="path8907"
       sodipodi:cx="33.5625"
       sodipodi:cy="26"
       sodipodi:rx="2.125"
       sodipodi:ry="2.125"
       d="m 35.6875,26 a 2.125,2.125 0 1 1 -4.25,0 2.125,2.125 0 1 1 4.25,0 z"
       transform="matrix(2.1051133,0,0,2.1051133,-46.626229,-33.715382)" />
    <path
       sodipodi:type="arc"
       style="color:#000000;fill:#000000;fill-opacity:1;fill-rule:nonzero;stroke:none;stroke-width:1;marker:none;visibility:visible;display:inline;overflow:visible;font-family:Bitstream Vera Sans"
       id="path15180"
       sodipodi:cx="14.75"
       sodipodi:cy="22.6875"
       sodipodi:rx="1.75"
       sodipodi:ry="1.8125"
       d="m 16.5,22.6875 a 1.75,1.8125 0 1 1 -3.5,0 1.75,1.8125 0 1 1 3.5,0 z"
       transform="matrix(1.142857,0,0,1.103448,7.142867,-4.034485)" />
    <path
       sodipodi:type="arc"
       style="color:#000000;fill:url(#linearGradient5981);fill-opacity:1;fill-rule:evenodd;stroke:none;stroke-width:1;marker:none;visibility:visible;display:inline;overflow:visible;enable-background:accumulate"
       id="path5604"
       sodipodi:cx="20.875"
       sodipodi:cy="18.5625"
       sodipodi:rx="1.25"
       sodipodi:ry="1.25"
       d="m 22.125,18.5625 a 1.25,1.25 0 1 1 -2.5,0 1.25,1.25 0 1 1 2.5,0 z"
       transform="matrix(2.4,0,0,1.6,-26.1,-11.7)" />
    <path
       transform="matrix(2.0356945,0,0,1.915947,-2.6133304,-2.8232634)"
       d="m 10.040361,8.2567558 a 1.0103508,1.0734978 0 1 1 -2.0207016,0 1.0103508,1.0734978 0 1 1 2.0207016,0 z"
       sodipodi:ry="1.0734978"
       sodipodi:rx="1.0103508"
       sodipodi:cy="8.2567558"
       sodipodi:cx="9.0300102"
       id="path6043"
       style="color:#000000;fill:#edd400;fill-opacity:1;fill-rule:evenodd;stroke:none;stroke-width:1;marker:none;visibility:visible;display:inline;overflow:visible;filter:url(#filter6137)"
       sodipodi:type="arc" />
    <path
       sodipodi:type="arc"
       style="color:#000000;fill:#ffffff;fill-opacity:1;fill-rule:evenodd;stroke:none;stroke-width:1;marker:none;visibility:visible;display:inline;overflow:visible;enable-background:accumulate"
       id="path6141"
       sodipodi:cx="15.71875"
       sodipodi:cy="13.09375"
       sodipodi:rx="0.8125"
       sodipodi:ry="0.8125"
       d="m 16.53125,13.09375 a 0.8125,0.8125 0 1 1 -1.625,0 0.8125,0.8125 0 1 1 1.625,0 z"
       transform="translate(0.03125,-0.0625)" />
    <path
       sodipodi:type="arc"
       style="color:#000000;fill:none;stroke:url(#linearGradient6153);stroke-width:1.02631152;stroke-linecap:round;stroke-linejoin:miter;stroke-miterlimit:4;stroke-opacity:1;stroke-dasharray:none;stroke-dashoffset:0;marker:none;visibility:visible;display:inline;overflow:visible"
       id="path6143"
       sodipodi:cx="53.135429"
       sodipodi:cy="11.013739"
       sodipodi:rx="8.6624146"
       sodipodi:ry="8.6624146"
       d="m 61.797844,11.013739 a 8.6624146,8.6624146 0 1 1 -17.324829,0 8.6624146,8.6624146 0 1 1 17.324829,0 z"
       transform="matrix(0.974527,0,0,0.9741996,-27.780787,10.274244)" />
    <g
       id="g3090"
       transform="matrix(1.2490742,0,0,1.2490742,13.942558,-7.7308367)">
      <rect
         ry="1.8006084"
         y="31.7328"
         x="7.2011857"
         height="10.903684"
         width="18.177813"
         id="rect3075"
         style="fill:#ffffff;fill-opacity:1;stroke:url(#linearGradient3413);stroke-width:0.8928073;stroke-opacity:1" />
      <g
         id="text3069"
         style="font-size:7.69992542px;font-style:normal;font-weight:bold;line-height:125%;letter-spacing:0px;word-spacing:0px;fill:#3a61a1;fill-opacity:1;stroke:none;font-family:Sans;-inkscape-font-specification:Sans Bold"
         transform="scale(1.0239524,0.97660787)">
        <path
           inkscape:connector-curvature="0"
           id="path3084"
           style="text-align:center;text-anchor:middle;fill:#3a61a1"
           d="m 13.476801,34.998185 0,1.188074 c -0.308303,-0.137852 -0.609081,-0.241871 -0.902335,-0.312057 -0.293263,-0.07018 -0.570229,-0.105268 -0.830901,-0.105273 -0.345897,5e-6 -0.601559,0.04763 -0.766984,0.14287 -0.16543,0.09525 -0.248144,0.243134 -0.248142,0.443648 -2e-6,0.150393 0.05514,0.268198 0.165428,0.353415 0.112789,0.08272 0.315815,0.154152 0.609076,0.214304 l 0.616595,0.124071 c 0.624111,0.125328 1.067759,0.315821 1.330944,0.571479 0.263177,0.255664 0.394767,0.619105 0.394772,1.090322 -5e-6,0.619103 -0.184232,1.080296 -0.55268,1.38358 -0.365951,0.300778 -0.92615,0.451167 -1.680599,0.451168 -0.355924,-10e-7 -0.713097,-0.03384 -1.071523,-0.101513 -0.358429,-0.06768 -0.7168559,-0.167935 -1.0752825,-0.300778 l 0,-1.221912 c 0.3584266,0.190494 0.7043215,0.334617 1.0376855,0.432368 0.335867,0.09525 0.659203,0.142871 0.97001,0.14287 0.315814,10e-7 0.55769,-0.05264 0.725628,-0.157909 0.167931,-0.105271 0.251898,-0.25566 0.251901,-0.451167 -3e-6,-0.175452 -0.05765,-0.310802 -0.172947,-0.406051 -0.112795,-0.09524 -0.339632,-0.180465 -0.680511,-0.255661 l -0.5602,-0.124071 C 10.475282,37.979653 10.064218,37.787907 9.8035451,37.524723 9.5453764,37.261545 9.4162925,36.906878 9.416293,36.46072 c -5e-7,-0.558942 0.1804663,-0.988804 0.541401,-1.289587 0.360933,-0.300773 0.879775,-0.451162 1.556528,-0.451168 0.308295,6e-6 0.625365,0.02382 0.951211,0.07144 0.32584,0.04512 0.662962,0.114051 1.011368,0.206785" />
        <path
           inkscape:connector-curvature="0"
           id="path3086"
           style="text-align:center;text-anchor:middle;fill:#3a61a1"
           d="m 15.119802,34.821478 1.447496,0 0,5.068115 c -2e-6,0.699309 -0.190495,1.221911 -0.571479,1.567807 -0.378481,0.345893 -0.952465,0.518841 -1.721956,0.518842 l -0.293259,0 0,-1.094081 0.225584,0 c 0.300778,0 0.527615,-0.08397 0.680511,-0.251902 0.155401,-0.167934 0.233102,-0.414823 0.233103,-0.740666 l 0,-5.068115" />
        <path
           inkscape:connector-curvature="0"
           id="path3088"
           style="text-align:center;text-anchor:middle;fill:#3a61a1"
           d="m 22.443754,40.126456 c -0.265692,0.137857 -0.542659,0.241876 -0.8309,0.312057 -0.28825,0.07018 -0.589028,0.105272 -0.902335,0.105273 -0.934922,-10e-7 -1.675588,-0.260675 -2.222,-0.782024 -0.546414,-0.523855 -0.819621,-1.233189 -0.819621,-2.128007 0,-0.897318 0.273207,-1.606653 0.819621,-2.128007 0.546412,-0.52385 1.287078,-0.785777 2.222,-0.785783 0.313307,6e-6 0.614085,0.0351 0.902335,0.105272 0.288241,0.07019 0.565208,0.174207 0.8309,0.312058 l 0,1.161756 c -0.268199,-0.182969 -0.532633,-0.317066 -0.793303,-0.402291 -0.260678,-0.08522 -0.535138,-0.127826 -0.82338,-0.127831 -0.516339,5e-6 -0.92239,0.165433 -1.218153,0.496285 -0.295767,0.33086 -0.443649,0.78704 -0.443648,1.368541 -1e-6,0.579001 0.147881,1.033927 0.443648,1.364782 0.295763,0.330857 0.701814,0.496285 1.218153,0.496284 0.288242,10e-7 0.562702,-0.04261 0.82338,-0.127831 0.26067,-0.08522 0.525104,-0.219316 0.793303,-0.402291 l 0,1.161757" />
      </g>
    </g>
  </g>
</svg>
